<?xml version="1.0" encoding="UTF-8"?><svg id="Layer_1" xmlns="http://www.w3.org/2000/svg" viewBox="0 0 500 500"><path d="M500,0H0v500h500V0ZM144.4,497.01c-1.17-.06-2.34-.2-3.64-.26-.95-.13-2.05-.27-2.95-.44,1.84.05,4.14.06,6.57.05.25.23.25.46.02.64ZM152.95,496.29v-.03c1.55-.03,2.87-.06,3.72-.08-.77.02-1.85.05-3.72.11ZM497.34,421.78c.13-1.38.16-2.65-.12-3.48-.11,2.58-1.02,6.42-.78,10.03-.35.97-.93,1-2.01-1.07.19,1.74.68,3.91,1.36,3.52-.2,2.58-.6,3.39-1.38.78.56,9.45,1.65,6.09,1.62,14.65-.5-.03-.69-1.76-1.27-2.64.97,4.33,1.94,8.69,1.52,15.92-.26-.38-.59.21-.66-1.06.23,12.05,2.54,20.74,1.63,34.11-.54-1.01-.85-1.22-1.05-.96-.1.13-.17.38-.22.7-.05.3-.09.81-.13.94-.08.47-.15,1.01-.35,1.32-.76-.14-1.61-.28-2.57-.41l-8.21,1.42-2.65-1.13,6.91-.07c-3.92-1.06-6.41-.12-9.19.52-.66-.6-1.81-1.02-3.44-1.24l-8.06,2.22c-.98-.91,3.62-1.81-1.79-2.31-3.78,1.03,3.62,2.04-2.63,2.72-3.93-1.06-2.78-1.92-7.39-1.02-.65-.6.33-.98,2.16-1.24-4.1.72-10.86.3-12.98,1.54-4.09-1.31-13.86.34-13.45-1.86-1.29.53-7.23,1.73-11,1.82,6.89-2.64-14.11-.16-12.29-2.98-5.1,2.37-18.41,1.05-27.44,2.37.5-.19,1.5-.57,2.29-.45-5.08-.2-6.56-.91-9.82-1.36-.65,1.96-8.57,2.41-12.83,3.62-6.23-1.89,3.78-2.3,1.83-4.12.31,1.59-10.82,1.58-8.7,2.91-4.76-1.17-4.1-.57-6.56-2.19-.84,2.45-4.44.42-8.39,1.92-6.89-1.21-1.78-2.29-9.35-1.55-3.6-.75,3.13-1.62,3.13-1.62-7.71-.04-3.62,1.81-5.26,2.87-9.2.52-4.26-1.36-7.39-2.3-5.75.49-10.15,2.18-14.44,2.11-.32-.3-1.15-.41-.18-.8-6.08,1.47-18.04.07-25.12,1.92-.53-.16-.79-.32-.92-.46,1.15.93,1.32,1.87,1.09,2.54-.66,0-1.29.06-1.9.12-1.53-.12-3.05-.19-4.56-.22,1-.14,1.29-.48,2.03-.77l-3.62.52c-3.26-1.73,4.94-.6,4.94-1.88-7.06.56-15.3,2-20.71,1.51-1.13-1.7,12.66-.57,5.43-2.08l8.38.65c-6.4-2.68,5.09.19-.79-2.68-11.02-.49-12.33.87-23.32.37-2.48.94.82,1.4-1.66,2.34-15.63,1.7-12.3-4.27-23.79-2.01-2.97,1.13-4.13,3.28-12.31,2.14l2.79-1.92c-10.67-.19-6.09,2.76-17.27,1.47,1.99-.75,8.39-.64,6.77-.86-7.24-1.52-5.12,1.09-10.69,1.09l-1.15-1.7c-11.36.27-23.87,1.5-36.46,1.81.7-.51,2.85-1.04-.09-1.56-15.87.85-33.87-.21-49.18-1.22l-5.85,1.47c-1.36-.02-2.52-.66-1.05-.95-5.96-.56-.31.93-3.18,1.51-3.39.1-4.48-.84-2.33-1.28-10.53,1.24-29.99,2.68-41.08,1.11l2.16-.44c-8.64-.6-9.75,3.01-17.76,1.64l1.54-.26c-5.8-.2-11.79-.2-17.71-.19-2.96,0-5.91.02-8.81.03-.75,0-1.49,0-2.23-.01-.64-.02-1.27-.03-1.9-.05,0-.2.02-.4.03-.6.11-.64.22-1.34.33-2.1l-.12-.69s0-.02,0-.03l.03-.26.03-.6c.02-.4.05-.79.07-1.18.2-3.14.49-6.09.92-8.82-.47-.6-.68-1.85-.76-3.44.13-.46.25-.97.33-1.56l-.36-1.32c.03-2.12.14-4.46.16-6.59.11-.42.2-1.04.29-1.95-.11-.41-.22-.68-.34-.86-.12-2.12-.47-3.7-1.32-4.04.05-.38.1-.74.15-1.09.11-.34.17-.7.17-1.18.15-.99.29-1.84.42-2.58.18.41.33,1.05.45,1.89-.14-.8-.24-1.71-.31-2.66.85-4.63,1.33-5.51,2.09-17.09.09-2.53-.67-4.26-1.31-6.43.06.07.1.02.11-.26-.07-.04-.13-.01-.19,0-.35-1.21-.65-2.57-.76-4.29l1.54-.12-1.45-6.07c.05-.34.09-.75.11-1.23l1.56-3.05-.4-4.67c-.09,1.77-.63,3.73-1.07,3.67.06-4.03.2-8.4,1.55-7.52-.56-1.21-.92-2.9-1.15-4.87.44-3.17,1.02-5.47,1.39-5.56l-1.3-17.25c.46.28.69,1.94.95,3.7-.82-6.27,1.79-.48.46-8.26-.35,1.13-.92-.61-1.23-.8.12-.55.23-1.19.32-1.89,0-.01,0-.02,0-.04,0,0,0,0,0,0,.36-2.86.49-6.88.47-10.97.01-.01.02-.02.03-.03-.01,0-.02,0-.03,0-.02-2.72-.1-5.48-.24-7.93l1.06,1.36c.27-12.8-.51-26.97-.49-41.34-.13,1.39-.37,2.3-.64,2.83-.22-1.49-.49-2.89-.76-4.23l.51-.53c-.35-.94-.53-.71-.67-.23-.28-1.38-.53-2.69-.7-3.97.59-1.18,1.52.32,1.9,2.49l-.57-6.52c.49-.38.74,1.15,1.36,1.54-1.01-2.68,1.63-11.26-.12-15.12l.48-.37c.01-14.36-.55-20.87-.63-32.56-.91-.15-1.1-2.1-1.43-4.4-.07-1.95-.07-4.23.07-7.23-.23-.59-.42-.85-.6-.94.51-7.45,1.27-15.54,1.17-24.21-.7-7.28-1.19-2.13-2.03-5.4,1.28-.54,1.16-10.88,2.08-5.51-.21-12.43-.26-15.87-1.3-31.59-.1.31-.18.63-.26.94-.07-1.34-.15-2.68-.23-4.04.15-.31.31-.45.46-.35l.13.75c-1.92-17.64,3.73-40.72,1.06-54.77l.13.79-.82-8.62c.12-2.06.24-4.09.37-6.09.25.74.53.99.82-.8-2.14-15.72.31-24.83-1.11-37.77,3.78-10.02-.27-35.55,2.15-49.07l-.89.78c-.87-3.49.51-4.23.71-6.8-.69.37-.8,3.79-1.28,1.62-.04-1.28-.08-2.57-.12-3.86-.03-1.24-.06-2.48-.08-3.73-.04-.74-.07-1.53-.07-2.31h1.11s.14.03.14.03l.6.03c.4.02.79.05,1.18.07,3.14.2,6.09.49,8.82.92.53-.42,1.58-.63,2.91-.73,5.77.17,11.56.38,17.37.61,5.65.23,11.3.47,16.94.7,1.47.12,3.18.25,5.24.38.69.02,1.32-.02,1.92-.1,4.65.18,9.29.34,13.9.46,3.31.07,5.21-.31,6.61-.83l3.7-.31c-.77-.04-1.56-.16-2.22-.33.7-.34,1.35-.69,2.16-.97,2.91,0,5.97.25,8.51.6l-2.43,1.01c1.96-.17,3.92-.31,5.89-.42,1.43.31,2.33.61,2.38.84l17.25-1.3c-.28.46-1.94.69-3.7.95,6.27-.82.48,1.79,8.26.46-1.13-.35.61-.92.8-1.23,4.21.93,13.78.94,20.87.55l-1.36,1.06c12.8.27,26.98-.51,41.34-.49-1.44-.14-2.37-.38-2.89-.67,1.53-.13,3.09-.34,4.52-.51l.3.29c.44-.16.62-.29.64-.39,1.43-.14,2.68-.18,3.59.04-.5.36-1.42.69-2.52.88l5.33-.46c.4,0,.81-.01,1.22-.02.15.43-1.2.7-1.57,1.28,2.68-1.01,11.26,1.63,15.12-.12l.37.48c14.36.01,20.87-.55,32.56-.63.17-1.04,2.7-1.14,5.41-1.58,2.52,0,5.21-.14,7.48-.36,1.93.13,3.91.28,5.93.43.63.17.94.39.22.72,2.49-.01,4.89-.1,6.76-.27,3.55.19,7.21.31,10.98.27,3.38-.33,4.08-.61,4.18-.9,1.24-.08,2.45-.19,3.63-.29,2.89.46,6.86.6,3.09,1.25,12.43-.21,15.87-.26,31.59-1.3-.43-.13-.87-.24-1.27-.35,1.4-.08,2.8-.15,4.19-.22.43.17.65.36.53.53l-.75.13c3.77-.41,7.8-.46,11.92-.34-2.14.15-3.59.46-3.39,1.19,3.78-.23,7.15-.53,10.32-.83,13.12.91,26.53,2.83,35.91,1.05l-.79.13,14.57-1.39c6.7.22-4.02.96.94,1.76,15.72-2.14,24.83.31,37.77-1.11,10.02,3.78,35.55-.27,49.07,2.15l-.78-.89c3.49-.87,4.23.51,6.8.71-.37-.69-3.79-.8-1.62-1.28,1.28-.04,2.57-.08,3.86-.12,1.24-.03,2.48-.06,3.73-.08.74-.04,1.53-.07,2.31-.07l-.02,1.38-.02.69v.42s-.03,1.18-.03,1.18c-.07,3.14-.13,6.29-.2,9.45-.17,6.32-.41,12.67-.66,19.03-.51,12.71-1.11,25.46-1.45,38-.24,11.1,4.6,6.3,2.48,20.29l-1.65-3.97c1.98,22.4-.07,45.81,1.61,67.74-.38-1.31-.88-1.34-.87-3.48-1.2,4.63-.06,17.13.92,17.21-.11,3.42-.89.79-1.38,2.9-.71,4.65,1.53,11.66.34,14.13-.12.27-.25-.33-.34-1.01.32,3.98-.15,12.67,1.1,10.06-.66,8.23.61,15.75-.2,22.31,1.55,4.28-.74,14.09,1.44,15.45-2.26-.59-1.82,14.43-.76,19.64-.68-1.74-.71,4.52-1.66,2.48.03,5.94.45,11.38,1.61,10.35-2.71,10.94,2.18,21.99-1.29,28.15,1.22,17.64,2.04,33.97,2.57,49.84-2.25-.57-.22-17.54-2.59-16.86.93,15.06,2.86,23.74,2.32,38.67-.31,3.87-.98-2.2-1.36-3.5.93,15.04-.2,29.07,1.02,42.45,1.37-2.41,2.81,9.75,3.59,11.23-.79-1.11-1.19-.51-1.43.76ZM497.03,424.31c-.1,1.03-.19,2.09-.33,2.94.05-.85.18-1.87.33-2.94Z" fill="#fcf9f0"/></svg>