<?xml version="1.0" encoding="UTF-8"?><svg id="Layer_1" xmlns="http://www.w3.org/2000/svg" viewBox="0 0 454.21 203.76"><defs><style>.cls-1{fill:#fff;stroke-width:0px;}</style></defs><path class="cls-1" d="M445.7,202.17c-3.15.55-6.85-.35-10.56-.04-.29.02-.69-.12-.86.02-1.89,1.56-3.87.47-5.83.25-2.43-.27-4.86-.64-7.3.01-.54.14-1.18.1-1.73-.03-.91-.21-2.02-.24-2.56.22-1.44,1.22-2.66.49-4.11.2-3.35-.67-6.75-.98-10.18-.53-.48.06-.98.32-1.43.23-5.15-1.02-10.34-.13-15.51-.35-1.68-.07-3.53.03-5.1,1.04-.5.32-1.28.62-1.59.03-.77-1.44-1.84-1-3.03-.87-1.05.12-2.13-.2-3.2-.21-2.83-.03-5.65-.12-8.5.3-2.39.35-4.84-.4-7.3-.35-5.84.12-11.68-.07-17.51.22-2.74.14-5.41.13-8.14-.07-3.19-.24-6.4-.05-9.61-.05-1.65,1.24-3.31.32-4.98.05-.48-.08-.98-.13-1.46-.08-6.25.64-12.5-.42-18.74-.02-1.27.08-2.63-.32-3.62,1.24-.52.82-1.99.04-2.61-.43-1.26-.98-2.4-.42-3.61-.25-.18.03-.47.11-.51.24-.44,1.18-1.23.9-1.76.27-1.35-1.59-2.86-1.45-4.47-.62-.75.38-1.37.63-2.11-.08-.31-.3-.92-.43-1.37-.4-3.32.26-6.67-.5-9.96.21-2.34.51-4.6-.37-6.95-.16-2.97.27-5.98-.12-8.98.26-1.03.13-2.12-.34-3.18-.33-4.6.03-9.19.16-13.79.2-1.95.02-3.89-.13-5.84-.1-3.66.04-7.37-.32-10.95.7-.87.25-1.85-.7-2.44.22-.78,1.22-1.54.05-2.28.07-.89.02-1.73.17-2.59.26-.6.06-1.24-.55-1.9-.65-2.12-.32-4.19-.79-6.39-.67-3.4.19-6.82-.01-10.23-.04-.78,0-1.58-.09-2.35.03-4.14.64-8.29.23-12.43.04-.93-.04-.97.89-1.48.95-1.26.13-2.63.31-3.8-.04-2.94-.9-5.87-.63-8.86-.55-3.89.1-7.78-.2-11.69-.15-2.9.03-5.85-.18-8.78-.25-1.53-.03-2.85.46-4.27.84-1.32.36-2.38-1.24-3.87-.9-3.08.7-6.24.32-9.32.3-4.96-.04-9.91.52-14.89-.02-2.57-.28-5.24-.37-7.85.05-.19.03-.39.11-.58.08-4.06-.69-8.11.3-12.23-.1-3.57-.34-7.29-.49-10.96.01-2.09.28-4.26-.45-6.43-.22-1.64.18-3.33-.47-4.94.22-1.42.61-3.13-.86-4.42.64-1.78-.67-3.64-.28-5.46-.45-1.23-.12-2.37-.35-3.69.22-.97.41-2.43-.18-3.63-.47-1.11-.27-2.11-.26-3.11.32-.33.19-.81.48-1.06.37-2.13-.94-4.36.14-6.55-.51-3.14-.94-6.4-.46-9.61-.17-.39.03-.8.22-1.15.13-2.75-.72-5.44.08-8.16.2-.78.04-1.61.13-2.33-.09-2.5-.78-5.09-.63-7.58-.41-2.41.22-4.84-.79-7.23.26-.54.24-1.09-.34-1.39-.87-1.95-3.43-.46-6.97,3.45-7.42,2.77-.32,5.6-.51,8.42-.61,4.86-.17,9.68,1.08,14.57.04,1.7-.36,3.66-.27,5.52.2,1.2.3,2.54.27,3.79.11,2.88-.36,5.75-.54,8.62.02.09.02.22.04.29,0,2.28-1.34,4.73-.26,7.09-.43,2.43-.17,4.97-.41,7.31.09,2.74.59,5.42-.61,8.09.24.41.13.95-.15,1.43-.19,2.23-.17,4.4-.44,6.68.12,2.86.7,5.85.14,8.76-.14,1.36-.13,2.71-.43,4.08-.16,1.09.22,2.14-.07,3.21-.21.48-.06,1.12-.33,1.4-.12,1.66,1.25,3.41.26,5.09.4,2.41.21,4.85-.48,7.23.28.18.06.39.08.58.06,5.04-.53,10.14.69,15.16-.39,1.42-.31,2.7.4,4.05.37,3.4-.08,6.9.19,10.15-.55,2.49-.57,4.84.71,7.18-.23,2.47,1.92,5.36-.45,7.9.76,3.66-.98,7.39.88,11.05-.25.79-.25,1.58.04,2.3.3,1.35.49,2.23-1.33,3.57-.63,1.16.61,2.41.9,3.7.73,4.37-.59,8.76-.37,13.14-.5.1,0,.2-.04.29-.03,6.11.66,12.26-.67,18.39.38,2.38.41,4.85.22,7.31-.17,2.39-.38,4.87-.69,7.29.02.86.25,1.76.49,2.61.28,2.72-.69,5.41-.37,8.13-.06,1.16.13,2.32-.05,3.49-.25,1.91-.34,3.88-.65,5.81.01.57.19,1.15.29,1.72.06,1.16-.47,2.26-.19,3.44,0,2.22.38,4.46-.51,6.7-.14,2.99.49,6.02-.58,9.01.3.43.13,1.14.1,1.41-.16,1.2-1.23,2.43-.52,3.76-.38,2.88.31,5.83.58,8.7.33,4.12-.36,8.18-.29,12.26.22,2.54.32,5.05-.68,7.6-.31,3.22.46,6.41.17,9.64-.07,2.25-.17,4.67-.46,6.96.31.27.09.59.15.86.1,6.61-1.14,13.25-.22,19.87-.3,2.58-.03,5.17.09,7.75-.13,2.04-.17,4.09-.2,6.16,0,4.16.38,8.33.53,12.48-.07.69-.1,1.36-.04,2.03.17,1.25.4,2.47.58,3.56-.47.47-.45,1.11-.25,1.68-.12,4.04.9,8.21,1.33,12.24.81,4.2-.55,8.34.69,12.48-.18,3.17.99,6.42-.3,9.61.32.92.18,1.7-.48,2.58-.46,1.26.04,2.59-1.32,3.8.17.08.09.43.09.55,0,2.05-1.5,4.18-.07,6.27-.15,2.13-.07,4.3-.39,6.43.24.88.26,1.92.51,2.33-.81,1.51.27,3.25-.95,4.57.73.14.18.73.04,1.11,0,2.93-.22,5.85-.23,8.77.2,1.07.16,2.13.02,3.21-.17,1.93-.35,3.86-.55,5.81.06.81.25,1.83.31,2.61.04,2.71-.93,4.96-.16,7.13,1.45.97.72,1.04.62.76,2.02-.8,3.98-1.6,4.72-5.55,5.04-.67.05-1.35-.05-2.58-.1ZM211.18,202.22c-.14.09-.28.18-.42.28.15.09.3.24.44.24.14,0,.28-.17.43-.27-.15-.08-.3-.16-.45-.25Z"/><path class="cls-1" d="M10.79,1.04c2.3.27,4.85-.16,7.37.45,1.11.27,2.4.23,3.5-.06,1.68-.44,3.3-.15,4.95-.14,2.62.02,5.24-.26,7.86-.24,2.83.02,5.67.25,8.5.39.68.03,1.39.2,2.05.08,3.18-.57,6.4-.42,9.59-.36,5.95.11,11.91-.38,17.84-.09,3.41.17,6.8-.31,10.17-.02,3.41.29,6.83.08,10.24.35,2.02.16,4.29.4,6.11-1.14.52-.44,1.39-.24,1.64,0,1.17,1.1,2.6.95,3.88.81,2.75-.3,5.42.47,8.14.4,7.5-.18,14.99-.32,22.49-.44,2.64-.04,5.29.02,7.93.03.1,0,.2.03.29,0,2.79-.64,5.55-.57,8.27.37,3.94-1.05,7.93-.02,11.91-.15,4.55-.15,9.16-1.05,13.76.04,1.56.37,3.28.04,4.93,0,3.89-.08,7.79-.36,11.67-.17,2.06.1,4.09-.08,6.13-.1,3.72-.05,7.44.35,11.16-.03.19-.02.4-.04.59-.01,6.92.91,13.83-.26,20.76.02,5.25.21,10.52-.2,15.77-.01,4.16.15,8.31.07,12.47.09,5.36.03,10.73-.12,16.09-.12,9,0,18-.13,26.98.17,4.59.16,9.17-.27,13.76.07.2.01.4.09.58.05,1.69-.38,3.2-1,5.15-.29,1.62.59,3.66-.05,5.51-.01,1.85.04,3.71.31,5.56.38,3.12.13,6.25-.17,9.37-.29,5.29-.21,10.59-.1,15.87-.03,4.39.06,8.74.02,13.1-.45.1-.01.21-.04.29,0,2.49,1.36,5.18.44,7.75.54,5.26.19,10.54-.01,15.82-.11,2.6-.05,5.25.73,7.8-.43,1.97.96,4.05.15,6.06.4,3.28.41,6.6-.16,9.87.45,4.32-1.07,8.75.05,13.13-.63,1.63-.25,3.41.08,5.09-.4.18-.05.43-.06.58.03,2.73,1.56,5.7.32,8.54.72,1.69.23,3.26.56,4.7,1.48,2.16,1.37,2.4,2.82.91,4.87-.98,1.34-2.69,1.58-3.81,2.68-.11.11-.4.13-.55.07-2.66-1.06-5.43-.45-8.14-.45-3.81,0-7.61-.11-11.43.13-3.89.24-7.82.06-11.71-.19-5.68-.36-11.35.11-17.03-.03-3.27-.09-6.57.78-9.85.44-2.59-.27-5.22.61-7.78-.37-.63-.24-1.39-.07-1.97.34-.76.53-1.46,1.16-1.93-.27-.03-.09-.38-.15-.55-.1-2.49.72-5.05-.29-7.54.34-1.1.28-2.1-.35-3.19-.34-4.5.04-9.01-.03-13.51.07-1.08.02-2.15-.04-3.22-.12-1.56-.11-2.67.85-3.92,1.49-.8-1.44-2.25-1.25-3.57-1.55-1.5-.34-2.64,1.35-3.7.84-1.34-.63-2.54-.7-3.92-.69-4.4.03-8.81-.1-13.21-.14-2.74-.03-5.54-.38-8.2.06-2.32.38-4.49.16-6.77.09-6.55-.21-13.11-.01-19.67,0-2.15,0-4.31-.04-6.46-.11-4.21-.14-8.42.21-12.61.09-6.93-.2-13.84.13-20.77.02-5.66-.09-11.34-.34-17.01.07-.68.05-1.37,0-2.06-.01-5.65-.03-11.31-.06-16.96-.09-.57,0-1.26-.19-1.52.53-.21.57-.56.42-.93.33-4.6-1.12-9.28-.9-13.94-.83-.78.01-1.74-.35-2.3.79-.24.49-1.15.3-1.63.1-3.11-1.31-6.38-.84-9.59-.91-3.82-.08-7.64.02-11.46.06-.78,0-1.6-.05-2.33.15-1.62.46-3.17.85-4.81-.03-.55-.29-1.35-.23-2.03-.18-2.05.15-4.09.26-6.13-.05-.38-.06-.89-.19-1.15-.02-1.76,1.16-3.51.13-5.25.15-6.34.1-12.69-.66-19.03.17-1.5.2-3.08-.28-4.66-.26-5.85.07-11.7.04-17.55.03-6.94-.02-13.89-.25-20.83-.04-7.23.21-14.47-.39-21.69.11-2.74.19-5.41-.34-8.12-.25-2.64.08-5.29.11-7.93.12-7.53.01-15.06-.16-22.59.05-7.23.21-14.45-.25-21.68.02-.68.03-1.4.04-2.04-.15C-.12,8.68-.93,5.24,1.45,2.96c1.3-1.25,2.77-2.11,4.72-1.94,1.46.13,2.93.02,4.62.02Z"/><path class="cls-1" d="M260.95,33.3c1.98.15,4.28.21,6.61.65,3.08.58,5.98,1.67,8.97,2.48.45.12.86.43,1.28.67,4.05,2.37,7.92,4.97,11.37,8.19,1.57,1.47,2.81,3,3.8,4.96,1.41,2.78,2.89,5.55,3.83,8.5,1.92,6.06,3.43,12.2,1.56,18.62-.44,1.49-1.54,3.08-.01,4.65.12.13-.09.83-.34,1.04-2.43,2.01-2.66,5.14-3.86,7.74-.63,1.38-1.78,2.58-1.84,4.24-.01.38-.53.51-.82.76-1.52,1.3-3.53,2.22-3.56,4.69,0,.5-.58.73-1.05.91-3.57,1.36-6.49,3.96-10.1,5.26-.36.13-.63.56-.98.63-4.78.89-9.28,2.99-14.24,3.09-1.83.04-3.73-.34-5.41.84-.47.33-.91.09-1.19-.43-.47-.9-1.35-1.06-2.24-1.16-3.53-.41-6.73-1.87-10.04-3.03-4.46-1.56-8.15-4.19-11.39-7.45-3.69-3.7-6.41-8.07-7.8-13.17-.61-2.23-1.72-4.25-2.08-6.64-.37-2.46-.25-5.09-1.53-7.4-.26-.46.14-.93.2-1.4.15-1.14,1.41-2.3.02-3.46-.07-.06-.01-.36.07-.51,1.74-3.37,2.43-7.12,3.92-10.57,2.62-6.06,5.84-11.74,11.82-15.23,1.27-.74,2.44-1.62,3.61-2.51,2.39-1.81,5.3-2.44,8.12-3.2,2.25-.6,4.6-.78,6.83-1.54,1.99-.68,4.09,0,6.47-.21ZM278.71,72.11c.17-2.03-.76-3.84-1.05-5.75-.55-3.52-2.09-6.44-4.66-8.85-1.33-1.24-2.57-2.71-4.13-3.57-2.13-1.17-4.62-1.79-7.01-1.92-2.06-.12-4.18.16-6.28.03-.35-.02-.74.23-1.09.39-1.5.7-3.09,1.28-4.48,2.16-4.47,2.82-7.78,6.48-7.89,12.14-.02.84-.34,1.52-.73,2.19-.64,1.12-.72,2.43-.18,3.39,1.36,2.39,1.59,5.23,3.17,7.51.5.72.69,1.71,1.49,2.13.99.51,1.23,1.3,1.49,2.28.47,1.8,1.51,3.15,3.57,3.39.9.1,1.65.4,1.74,1.56.03.35.62.76,1.03.95,2.05.93,4.09,1.72,6.46,1.59,2.44-.14,4.6-1.49,7.06-1.37.18,0,.36-.12.54-.19,2.85-1.15,4.37-3.95,6.9-5.51,1.08-.67.32-1.8.58-2.69.03-.09.1-.17.17-.23,2.73-2.66,2.74-6.24,3.29-9.63ZM237.76,85.35c.26.57-.06,1.62.83,1.55.59-.05.18-1.01.37-1.54.12-.33.03-.75-.03-1.11-.03-.16-.2-.35-.35-.41-.38-.16-.48.15-.56.42-.1.37-.18.74-.27,1.09ZM256.58,42.77c.29-.02.58,0,.85-.05.35-.07.91-.08.81-.57-.09-.47-.59-.29-.94-.21-.28.06-.56.13-.83.21-.26.08-.75.24-.75.27.11.48.55.28.86.36ZM252.58,45.99c-.02-.72-.37-1.28-1-1.58-.38-.19-.48.21-.36.46.27.57.31,1.33,1.09,1.53.05.01.18-.26.27-.4ZM278.8,53.73c-.29.1-.5.32-.39.59.09.22.34.45.56.52.31.1.53-.14.51-.45-.02-.4-.25-.66-.69-.66ZM268.39,45.23c.31-.01.52-.18.54-.48.01-.15-.06-.38-.18-.45-.28-.18-.5,0-.59.26-.1.26-.07.52.22.67ZM231.05,71.42c-.1.15-.32.36-.28.44.12.24.32.57.54.62.39.1.45-.2.29-.51-.12-.25-.19-.55-.55-.55ZM277.87,49.56c-.06-.16-.1-.43-.2-.45-.29-.07-.5.12-.59.4-.09.29.02.55.31.57.29.02.44-.23.48-.52ZM228.15,78.19c.07-.04.15-.09.22-.13-.11-.13-.21-.26-.33-.37-.02-.02-.15.08-.22.12.11.13.22.25.33.38ZM237.38,51.25c-.1.11-.19.22-.29.33.06.05.16.14.16.13.11-.1.21-.22.31-.33-.06-.04-.13-.09-.19-.13Z"/><path class="cls-1" d="M330.93,94.46c-.16.93-.31,1.83.14,2.64.48.87.26,1.62,0,2.51-.4,1.4-.5,2.88-.76,4.32-.52,2.85-3.48,5.32-6.31,4.98-2.54-.3-5.08-.29-7.62-.37-3.15-.1-5.56-2.38-6.05-5.58-.55-3.61.07-7.2.09-10.8.02-4.88.08-9.76-.12-14.65-.03-.77.15-1.55.15-2.33,0-.86.13-1.76-.6-2.47-.92-.9-.79-2.11-.28-2.99.66-1.12.35-2.28.63-3.35.43-1.62-.74-3.03-.32-4.49.42-1.48.25-2.81,0-4.29-.24-1.47.18-3.06.33-4.59.16-1.65.57-3.33-1-4.61-.46-.38-.32-.87.08-1.25,1.34-1.26,1.28-2.9.81-4.38-.57-1.76.26-3.17.76-4.64.53-1.55,1.71-2.56,3.41-2.9.86-.17,1.73-.41,2.5-.82,1.14-.61,1.12-.72,1.48-.54,1.34.7,2.76.83,4.26.83,1.55,0,3.12,0,4.68.35.74.17,1.74.3,2.3-.06,1.86-1.22,3.73-.44,5.6-.35,3.9.18,7.79.43,11.69.41,1.85,0,3.63.98,5.49.25,2.24,1.7,4.89,1.55,7.49,1.64.86.03.22,1.34,1.25,1.36.75.01,1.5.41,2.24.65.18.06.36.16.51.29.82.7,2.02-.31,2.75.57,1.79,2.17,4.23,3.85,5.39,6.46,1.18,2.65,2.79,5.18,2.92,8.22.02.49.03,1.04.26,1.44,1.39,2.45.94,4.82-.06,7.25-.41.98-.73,2.06-.78,3.11-.05,1.15-1.24,1.12-1.56,1.94-1.53,3.95-4.8,6.81-6.69,10.55-.47.94-1.62,1.38-2.05,2.45-.91,2.3-1.09,4.54.28,6.74.98,1.58,1.95,3.16,2.93,4.73.32.51.71.94,1.38.95.42,0,1,.21.81.56-1,1.82.77,2.32,1.46,3.35,1.35,2.02,2.64,4.08,4.11,6.03,1.67,2.22.71,4.24-2.04,4.98-.75.2-1.5.44-2.22.72-.58.22-1.13.34-1.68,0-1.26-.78-2.58-.46-3.96-.42-2.52.06-5.24.22-7.52-.63-1.93-.72-4.12-1.68-5.41-3.73-1.25-1.98-2.64-3.87-3.92-5.84-2.43-3.76-5.01-7.42-7.57-11.09-1.12-1.61-1.78-1.75-3.38-.74-.5.32-1,.77-1.54.75-2.89-.13-3.35,2.46-4.61,4.1-.63.82-.19,1.9-.12,2.81ZM331.55,48.67c-.25.11-.54.17-.75.33-.2.14-.32.37-.48.56.37.25.72.17.94-.17.14-.21.16-.51.24-.77.17-.09.35-.16.49-.28.13-.12.32-.42.29-.44-.32-.3-.48-.02-.6.22-.08.16-.09.37-.13.55ZM364.42,56.31c0-.19,0-.38-.02-.56-.11-1.05-.77-1.21-1.62-.93-.43.14-1.14.38-.92.85.26.55,1.03-.05,1.56.2.34.16.71.27,1.06.39-.16,1.32.64,2.14,1.51,2.93.12.11.48.2.49.17.13-.24.3-.52.28-.76-.16-1.37-1.41-1.67-2.33-2.28ZM322.15,82.8c-1.06.13-2.28.92-2.1-1.37.11-1.41-1.43-1.77-2.86-.88-.93.58-.94,1.17.1,1.6.95.4,1.65.68,1.62,2-.02.91.93,1.62,1.92,1.12.89-.45,1.16-.13,1.48.57.05.12.43.23.48.18.18-.19.38-.45.39-.69.04-1.02-1.39-1.44-1.1-2.59.16-.23.38-.45.48-.71.15-.4-.02-.77-.32-1.05-.1-.09-.42-.14-.43-.11-.2.4.16.7.23,1.06.06.28.08.58.11.86ZM339.88,52.59s0,.03,0,.04c-.78-.04-1.56-.11-2.34-.11-3.05,0-5.16,1.53-6.47,4.18-.43.87-.72,1.99.24,2.67.75.52.42.75.16,1.33-1.69,3.71-.25,7.11,2.73,8.77,2.03,1.13,4.1,1.17,6.24.62,1.04-.26,1.98-.7,3.12-.39.49.14,1.16-.13,1.68-.35,1.08-.47,2.18-.77,3.33-1.03,2.74-.62,5.26-1.59,5.67-4.94.02-.18.15-.36.24-.53.88-1.67.89-3.17-.81-4.37-.91-.64-.94-1.81-1.49-2.69-.8-1.27-2.28-.27-3.07-1.35-.87-1.2-2.37-1.32-3.7-1.5-1.83-.25-3.69-.24-5.53-.34ZM321.55,74.97c-1.03.08-1.74.16-1.01-1.33.3-.61-.82-1.42-1.6-1.84-.43-.23-.54.03-.68.5-.6,2,.73,4.04-.23,6.03-.14.29.36.85.72.68,1.62-.76,2.98-.23,4.34.64.17.11.63.02.78-.14.31-.34.06-.76-.17-1.03-.24-.28-.61-.47-.95-.65-1.43-.75-1.32-1.43.31-2.05,1.1-.42,2.23-.69,2.83-1.86.26-.5,1.63-.47.84-1.42-.52-.63-1.26-.01-1.88.19-.6.2-.99.62-1.21,1.19-.38,1.02-1.16,1.22-2.1,1.07ZM319.84,51.06c-.17-.52-.67-.66-1.07-.9-.56-.34-.78-1.4-1.49-1.15-.8.28-.4,1.38-.78,2.04-.09.15-.12.38-.08.55.19.78.74,1.19,1.49.94.61-.21,1.15-.66,1.7-1.03.12-.08.15-.3.22-.44ZM349.95,81.02c.38-.08.77-.13,1.13-.26.51-.18.8-.53.61-1.1-.24-.73-.59-.48-1.02-.13-.53.43-1.07.19-1.63-.05-.6-.26-1.52-.62-1.7.16-.16.67.89.86,1.49,1.13.34.15.75.18,1.13.26ZM324.71,82.69c.3.23-.28,1.23.5.89.59-.25,1.34-.78,1.45-1.61.03-.23-.13-.57-.32-.72-.18-.15-.55-.21-.77-.13-.69.26-1.08.75-.87,1.57ZM325.11,68.72c-.71-.12-.94-.84-1.44-1.28-.35-.31-.76-.76-1.21-.2-.35.43-.21.95.16,1.31.5.48,1.14.74,1.86.69.25-.02.55-.01.63-.53ZM344.92,77.62c-.71-.08-.96.3-1.02.8-.07.61.09,1.17.82,1.22.39.02.71-.24.76-.68.07-.59.05-1.15-.56-1.34ZM322.08,91.85c-.06-.41-.31-.72-.73-.62-.6.15-.94.59-.86,1.25.05.43.37.69.77.64.7-.09.83-.65.82-1.26ZM360.59,50.68c-.16-.18-.3-.47-.51-.56-.8-.33-1.22.25-1.58.8-.2.3.1.52.39.55.68.08,1.31-.02,1.7-.79ZM354.94,47.46c-.16.09-.59.23-.58.33.06.62.49,1,1.07,1.16.3.08.56-.13.61-.42.12-.75-.36-.99-1.09-1.07ZM354.97,78.15c-.18.04-.36.08-.53.13.07.14.1.34.22.41.47.3.95.57,1.44.83.05.03.21-.04.23-.1.06-.15.15-.38.09-.47-.35-.49-.91-.63-1.44-.8ZM337.05,41.65c-.09-.14-.21-.41-.27-.4-.36.08-.73.19-1.05.36-.24.13-.19.35.08.41.48.11.94.12,1.24-.38ZM321.17,56.39c-.33.06-.53.26-.44.58.04.13.28.25.45.28.3.05.59-.09.58-.42,0-.31-.28-.44-.59-.44ZM328.23,84.54c-.11-.12-.22-.34-.33-.34-.47,0-1.01.04-1.16.55-.07.24.35.32.61.32.39,0,.73-.11.88-.53ZM319.11,63.72c-.09-.16-.17-.45-.25-.45-.59,0-.7.47-.75.92-.02.14.15.43.23.43.58,0,.74-.42.77-.91ZM325.99,87.13c-.19-.32-.4-.7-.88-.47-.14.06-.3.36-.25.47.16.41.55.55.95.5.22-.02.27-.26.18-.5ZM354.22,87.56c.16-.07.39-.1.48-.23.18-.25.2-.56-.13-.71-.11-.05-.38.07-.46.18-.17.25-.14.54.11.76ZM322.51,59.35c-.06-.15-.08-.37-.19-.43-.1-.06-.36,0-.44.09-.21.26-.06.48.21.55.11.03.28-.14.42-.21ZM318.95,95.3c.48-.3.61-.54.51-.81-.07-.18-.28-.17-.41.02-.1.14-.19.31-.2.48-.01.23.14.3.1.32ZM320.31,54.81c-.09.13-.2.25-.26.39-.02.04.13.2.16.19.15-.06.28-.15.42-.23-.11-.12-.21-.23-.32-.35ZM324.68,47.35c.17-.06.34-.12.51-.17-.06-.07-.12-.19-.18-.19-.18-.01-.39-.03-.52.06-.15.1-.05.26.2.31ZM358.71,48.21c.07-.04.15-.09.22-.13-.1-.12-.2-.26-.32-.36-.02-.02-.15.07-.22.12.11.13.22.25.32.37Z"/><path class="cls-1" d="M148.05,104.52c-.03,2.67-2.11,4.66-4.82,4.41-3.61-.33-7.26.02-10.81-.43-3.41-.44-5.84-2.74-6.74-6.14-.66-2.51-2.09-4.12-4.37-5.16-.8-.36-1.51-.92-2.47-.45-.23.11-.69.11-.84-.04-1.8-1.83-4.1-1-6.16-1.09-3.89-.16-7.8-.05-11.7.03-1.79.03-3.24.74-4.72,1.93-2.15,1.73-3.53,3.82-4.67,6.23-1.48,3.13-4.06,4.56-7.49,4.77-3.21.2-6.4.05-9.59-.07-.39-.01-.79.01-1.17-.04-2.73-.39-3.59-1.32-2.85-3.91.78-2.68,1.27-5.5,2.85-7.92,1.94-2.98,2.4-6.61,4.13-9.68-.35-1.49.46-2.32,1.45-3.36.93-.99,1.6-2.6,1.64-3.96.05-1.64.84-2.92,1.57-4.03,1.65-2.5,2.56-5.22,3.51-8,.72-2.11,1.65-4.13,2.62-6.16,2.18-4.56,4.16-9.24,6.1-13.91.96-2.31,2.06-4.57,2.97-6.9.78-2,1.92-3.77,3.88-5,1.86-1.17,3.84-1.36,5.85-1.26,1.18.05,2.31.03,3.48-.05,5.41-.37,10.2,1.61,12.19,7.24,2.17,6.16,5.02,12.06,7.59,18.07,1.53,3.56,3.32,7.06,4.37,10.85.35,1.29,1.45,2.37,1.78,3.66,1.13,4.38,3.53,8.22,5.16,12.39,1.86,4.76,3.58,9.67,6.2,14.13.77,1.31.96,2.75,1.06,3.85ZM93.96,72.7c-.13.46-.27.92-.39,1.38-.07.29-.04.63.27.7.33.07.49-.25.57-.53.18-.61.03-1.13-.52-1.5-.28-.26-.67-.79-.82-.72-.89.36-1.74.85-2.58,1.32-.22.12-.21.34,0,.44.17.08.37.11.56.13,1.18.09,1.79-1.19,2.93-1.21ZM120.36,83.95c-.16-.55-.26-1.17-1.04-1.1-.12,0-.34.25-.31.31.24.67.86.63,1.41.72-.07.48-.12.97-.2,1.45-.08.46-.42,1,.09,1.34.48.31.92-.06,1.3-.36,1.31-1.05,2.58-2.14,4.49-1.38.49.19.93-.26,1.05-.78.06-.25.01-.61-.13-.82-.3-.46-.81-.61-1.28-.3-1.67,1.09-3.52,1.04-5.39.93ZM108.56,79.78c.99-.16,2.36-.29,3.68-.61,2.82-.69,3.38-2.22,2.5-5.05-.67-2.17-2.09-3.99-2.51-6.3-.29-1.57-1.32-3.03-2.17-4.46-.97-1.63-2.37-1.57-3.45.05-.56.84-.95,1.8-.85,2.76.19,1.89-1.73,3.36-.94,5.37.13.33-.54.66-.89.97-3.24,3.01-1.94,5.53.83,6.51,1.12.39,2.23.72,3.79.75ZM95.48,83.98c-.06-.78-.6-1.17-1.23-1.47-.47-.22-.97-.94-1.46-.26-.37.52-.58,1.25-.11,1.9.5.68,1.17,1.02,2.02.85.52-.1.85-.43.78-1.03ZM110.74,47.59c-.11-.16-.23-.45-.31-.44-1.02.14-2.06.23-3.04.52-.51.15-.2.68.08.91.62.51,1.38.64,2.16.48.77-.16,1.02-.77,1.11-1.46ZM97.75,87.29c-.1-.69-.51-1.23-1.2-1.48-.55-.2-1.28-.33-1.56.29-.23.51.02,1.17.52,1.56.49.39,1.09.38,1.67.24.29-.07.55-.21.56-.62ZM101.05,57.05c.71-.34,1.61-.47,1.91-1.41.03-.08-.2-.33-.34-.36-.88-.17-1.41.37-1.89.99-.06.07-.11.16-.13.25-.07.33.06.52.45.53ZM100.79,84.38c.29-.09.54-.22.5-.57-.08-.75-.67-1.11-1.23-1.45-.09-.05-.4.07-.46.18-.34.63.5,1.9,1.19,1.85ZM93.54,77.29c.41-.03.78-.16.82-.63.04-.42-.16-.77-.61-.83-.44-.06-.75.16-.79.62-.03.42.09.77.58.84ZM106.51,57.21c-.31.1-.53.33-.42.63.09.24.34.49.58.58.33.11.56-.16.55-.48,0-.43-.26-.7-.71-.72ZM109.3,53.94c-.3-.41-.64-.3-.96-.1-.13.08-.21.25-.31.37.35.03.7.1,1.04.09.24,0,.31-.18.23-.37ZM131.75,91.45c-.15-.34-.25-.76-.76-.56-.13.05-.29.31-.26.44.08.42.4.63.82.57.09-.01.14-.29.21-.44ZM128.39,86.01c-.08-.31-.26-.55-.59-.51-.11.02-.26.27-.27.42-.03.3.13.59.43.63.33.04.47-.21.43-.54ZM116.37,86.67c-.22-.15-.37-.33-.5-.32-.27.01-.53.12-.8.2.15.1.29.29.44.29.26,0,.52-.1.85-.17ZM123.11,76.36c-.07-.14-.11-.37-.23-.41-.11-.04-.37.04-.43.15-.17.28.02.48.28.52.11.02.25-.16.38-.26ZM90.95,85.55h-.23c.03.14.04.28.09.41,0,.02.15,0,.23,0-.03-.13-.06-.27-.1-.41ZM89.37,86.54c-.21-.26-.48-.25-.75-.17-.08.02-.21.14-.2.17.11.3.37.35.63.29.12-.03.21-.19.32-.29ZM126.97,80.75c.07-.14.14-.28.22-.42-.15,0-.3-.04-.44-.01-.05,0-.13.14-.13.21,0,.2.13.28.35.22ZM91.94,89.7c.14.11.28.22.43.31.01,0,.18-.16.16-.2-.06-.15-.14-.36-.27-.4-.21-.07-.34.08-.32.29ZM96.48,90.29c-.04.16-.12.33-.1.48.04.28.2.31.3.04.05-.14,0-.33-.02-.49,0-.02-.12-.02-.18-.03ZM111.72,49.89c-.14-.11-.26-.22-.41-.31-.02-.01-.2.14-.18.17.06.16.16.3.24.45.12-.1.24-.2.35-.31ZM92.31,79.68c-.11-.08-.22-.17-.34-.22-.04-.01-.18.11-.17.15.04.14.12.26.18.39.11-.1.23-.21.34-.31Z"/><path class="cls-1" d="M41.54,92.2c.14-.14.3-.26.41-.42,2.56-3.89,2.53-3.87.24-8-.54-.98-1.26-1.57-2.29-1.53-2.48.08-4.8-1.06-7.26-.87-1.02.08-1.62-1.5-2.63-.67-1.09.9-1.49.4-1.89-.59-.19-.48-.61-.73-1.07-.94-2.76-1.22-5.47-2.51-7.86-4.4-.35-.28-.91-.36-1.39-.38-.72-.03-.99-.2-.93-1.02.06-.79-.78-1.04-1.32-1.42-2.02-1.41-3.72-3.09-5.17-5.12-1.41-1.97-3.33-3.55-4.55-5.69-.32-.56-.76-1-1.06-1.63-.86-1.8-.38-3.23.4-4.85,1.47-3.08,2.86-6.21,4.71-9.07,1.13-1.74,2.5-3.39,4.34-4.57,1.3-.83,2.4-1.98,3.59-2.98.52-.44.97-1.09,1.57-1.29,3.49-1.19,6.86-3.25,10.56-3.18,2.21.04,4.44-.58,6.65-.03,2.18.53,4.36,1.06,6.56,1.46,3.87.72,7.33,2.65,11.1,3.63,2.42.63,4.05,2.72,6.38,3.54.28.1.42.28.36.66-.64,4.29-2.32,8.14-5.6,10.95-1.46,1.26-3.5,2.15-5.72,1.65-1.89-.43-3.79-.66-5.42-1.99-.93-.76-2.3-1.02-3.51-1.39-3.55-1.07-7.13-2-10.9-1.81-.92.05-1.57.35-2.26,1.05-3.44,3.49-3.42,3.67-1.41,7.77.86,1.76,2.08,2.25,3.75,1.94,1.07-.2,2.04-.57,2.77.62.13.21.52.38.77.36,2.32-.19,4.29,1.38,6.58,1.29.95-.04,1.68.46,2.48.8,2.66,1.16,5.14,2.79,8.13,3.05.59.05.85.35,1.05.84.19.44.36,1.14.69,1.24,2.56.78,3.22,3.41,4.97,4.99,2.25,2.02,3.79,4.68,5.22,7.36.55,1.03,1.13,2.05,1.74,3.05.56.91.66,1.76.1,2.73-2.19,3.78-4.03,7.77-7.08,11.01-2.95,3.12-5.81,6.46-9.68,8.38-2.83,1.41-5.9,2.5-9.13,2.99-4.86.74-9.44-.21-14.07-1.58-2.99-.88-6.06-1.45-8.97-2.65-1.82-.75-3.62-1.47-5.26-2.57-.56-.38-1.17-.83-1.8-.93-2.14-.34-3.26-2.07-4.74-3.3-.66-.55-.95-1.41-.66-2.13.63-1.56.5-3.5,2.31-4.52.96-.53,1.28-1.7,1.89-2.58,2.14-3.07,5.89-4.14,9.3-2.62.95.43,1.78,1.23,3,.79.47-.17,1.02.09,1.21.6.58,1.5,1.88,1.87,3.23,2.2.38.09.75.24,1.1.39,4.06,1.83,8.35,2.24,12.74,2.03.97-.05,1.95.03,2.92.11.69.06.8-.35.85-.88l-.07.07Z"/><path class="cls-1" d="M381.75,34.17c.43.18.78.35,1.16.47,1.33.41,2.71.55,4.07.38,1.65-.2,3.27-.56,4.95-.17.43.1.95-.16,1.41-.3.21-.06.6-.06.48-.44-.03-.11-.33-.15-.52-.21-.18-.06-.39-.08-.55-.17-.18-.1-.09-.23.21-.25.76-.05,1.6-.33,2.1.55.59,1.04,1.65,1.34,2.65,1.7,3.42,1.22,5.75,3.55,7.02,6.93.24.63.34,1.29.81,1.85,2.45,2.92,4.09,6.31,5.65,9.75.54,1.19,1.3,2.19,2.13,3.14,1.59,1.81,3.08,1.74,4.66-.15.62-.75,1.37-1.53,1.64-2.42.6-2,1.78-3.67,2.76-5.44.99-1.77,2.4-3.31,2.22-5.57-.06-.78.8-.96,1.47-1.19.82-.27,1.09-.85,1.06-1.79-.07-2.22.34-2.86,2.27-3.44,1.42-.43,2.69-1.18,3.99-1.78,2.28-1.04,4.52-1.06,6.86-.77.71.09,1.33.12,1.98-.2,2.75-1.33,5.32-.69,7.75.83,1.44.9,1.71,2.17.93,3.77-.08.17-.32.32-.32.48,0,3.07-2.08,4.85-4.1,6.68-.14.13-.28.3-.34.48-.42,1.33-.12,3.06-1.99,3.6-.43,1.45-1.46,2.51-2.4,3.63-.84,1,.16,2.52-.45,3.06-.7.63-1.84.76-2.46,1.8-1.24,2.1-2.67,4.09-3.26,6.52-.11.46-.27,1.11-.6,1.28-2.08,1.07-2.77,3.26-3.97,4.97-1.48,2.12-2.53,4.56-3.53,6.97-.72,1.73-1.13,3.57-1.42,5.48-.28,1.84-.5,3.66-.51,5.51-.03,4.21-.26,8.42.04,12.63.1,1.41-.23,2.71-1.03,3.9-.83,1.23-1.59,2.28-3.42,2.12-.95-.08-2.18-.09-3.09.66-.13.11-.38.25-.49.19-2.43-1.08-5.02-.4-7.52-.67-1.98-.22-3.79-1.99-4.45-4.02-.82-2.5-.34-5.06-.6-7.58-.12-1.14.24-2.37-.75-3.33-.32-.31-.18-.7-.04-1.09,1.23-3.47,1.01-9.24-.44-12.18-.22-.45-.48-.8-1.05-.9-.86-.15-1.2-.58-.57-1.41.34-.45.12-.95-.08-1.38-.54-1.15-.95-2.42-1.74-3.37-1.51-1.83-2.52-3.94-3.69-5.95-2.12-3.62-4.51-7.06-6.74-10.6-.82-1.31-1.38-2.93-2.16-4.33-.62-1.12-.93-2.67-2.64-2.87-.2-.02-.47-.39-.51-.63-.42-2.76-1.94-4.88-3.64-7.02-.99-1.25-1.33-3.02-2.03-4.52-.22-.46-.07-.73.21-1.02.62-.62,1.24-1.25,1.88-1.84.2-.18.49-.25.71-.35ZM410.97,81.53c-.06.32-.46.62-.06.96.04.03.2,0,.24-.05.31-.39.1-.65-.25-.86.1-.48.29-.88.79-1.08.35-.14.75-.35.46-.79-.32-.47-.87-.44-1.22-.08-.6.6-.78,1.29.05,1.9ZM413.29,71.15c-.58-.25-1.15-.36-1.51.31-.2.37,0,.76.21,1.09.44.72,1.07.74,1.77.44.27-.11.52-.27.79-.38.45-.18.9-.35,1.36-.49.49-.15,1.25.4,1.44-.34.05-.21-.84-.63-1.28-.98-.54-.43-1.06-.49-1.52.06-.37.44-.74.57-1.25.29ZM417.09,68.68c-.09-.16-.15-.38-.29-.46-.44-.28-.94-.24-1.42-.12-1.32.33-2.61.86-3.95-.02-.36-.23-1.03.63-.88,1.11.21.66.84,1.06,1.35.78,1.46-.79,3-.74,4.56-.82.31-.01.54-.15.62-.47ZM415.09,64.96c.12-.59-.26-.84-.6-.82-1.16.08-2.26-.02-3.32-.57-.27-.14-.59.12-.58.42,0,.25.16.59.36.71.96.6,2.34-.01,3.13,1.09.36-.29.71-.59,1.01-.84ZM417.55,78.68c.19-.88-.75-2.21-1.84-2.58-.36-.12-.79-.27-1.04.12-.32.5,0,.9.41,1.18.63.42,1.38.65,1.82,1.33.19.29.45.31.64-.05ZM412.4,84.45c.07-.24.26-.94-.65-.88-.74.04-.66.83-.69,1.4-.03.5.1.97.43,1.36.35.42.71,1.18,1.32.71.55-.43-.26-.76-.46-1.13-.21-.37-.21-.73.05-1.45ZM421.26,70.76c-.27-.55-.66-.95-1.33-.85-.32.05-.46.34-.29.61.31.5.76.85,1.4.71.1-.02.14-.31.21-.47ZM419.64,83.45c-.11-.46-.4-.66-.81-.46-.21.11-.46.39-.47.61-.01.42.32.66.73.63.45-.04.59-.37.54-.77ZM410.73,74.14c-.4.11-.7.37-.79.75-.06.25.05.54.09.81.14-.12.31-.22.42-.36.23-.3.43-.62.62-.94,0-.02-.23-.17-.34-.26ZM406.54,62.02c.3-.03.6-.07.56-.47,0-.06-.16-.18-.19-.17-.26.11-.5.26-.75.39.13.08.25.17.38.25ZM407.16,65.24c-.07-.16-.11-.4-.23-.46-.11-.05-.31.1-.48.17.07.16.11.39.23.46.1.05.31-.1.47-.16ZM407.17,69.17c-.05-.33-.26-.48-.54-.4-.11.03-.25.28-.24.41.03.27.22.49.53.38.12-.05.17-.27.24-.39ZM417.79,66.25c-.06-.27-.21-.33-.43-.16-.07.06-.15.14-.17.22-.05.22.07.39.29.34.13-.03.21-.26.32-.4Z"/><path class="cls-1" d="M159.87,34c1.21,0,2.78-.06,4.34.01,3.88.16,7.56,3.04,8.8,6.69.71,2.1,1.66,4.18,2.27,6.25.61,2.03,1.57,3.96,2,6.03.39,1.89,1.47,3.4,2.48,4.95.6.92,1.1.86,1.89.12,1.68-1.57,1.76-3.86,2.59-5.8.98-2.32,1.73-4.75,2.59-7.12.13-.37.39-.7.47-1.07.95-4.41,2.71-6.84,6.48-9.08.78-.46,1.62-.81,2.48-.83,2.22-.06,4.44-.01,6.65.07,1.27.05,2.52.27,3.79.37,2.98.22,3.57.83,3.61,3.75.02.99-.09,1.92-.53,2.84-2.9,6.09-5.21,12.42-7.65,18.7-.25.63-.6,1.25-.3,1.97.43,1.02.08,1.67-.93,2.07-1.27.5-.71,1.94-1.35,2.76-.68.88-1.38,1.7-.16,2.74.49.41.02.95-.28,1.28-2.47,2.69-4.05,5.85-5.12,9.3-.38,1.21-.72,2.44-1.42,3.53-.32.5-.72,1.14-.46,1.64.76,1.49-.05,2.3-1.01,3.25-1.28,1.25-2.05,2.85-2.39,4.62-.27,1.36-.73,2.63-1.53,3.77-.33.48-.65,1.01-.77,1.57-.73,3.26-2.54,6.1-3.51,9.27-.41,1.34-1.03,2.95-2.46,2.94-1.43,0-2.01-1.61-2.41-2.97-.66-2.26-1.56-4.41-2.63-6.52-.61-1.21-1.23-2.44-1.44-3.83-.22-1.42-1.09-2.45-2.27-3.23.68-1.47.02-2.59-.92-3.65-.13-.14-.41-.27-.4-.39.15-3.15-1.89-5.62-2.65-8.49-.8-3.02-2.66-5.65-3.53-8.63-.4-1.36-2.01-1.93-1.88-3.45.13-1.46-.61-2.64-1.16-3.88-1.34-3.04-2.78-6.09-3.75-9.22-1.26-4.04-3.23-7.72-4.75-11.61-.59-1.51-.42-3.28-1.88-4.5-.56-.47-.25-1.5-.2-2.27.04-.67.5-1.39.35-1.97-.35-1.34.41-1.53,1.35-1.59,2.43-.14,4.87-.24,7.66-.38ZM178.63,63.89c.12.57.26,1.15,1.05,1.01.29-.05.57-.32.42-.59-.25-.48-.77-.45-1.25-.39-.09.01-.19.03-.28.04-1.05-1.12-1.57-1.13-2.03-.09-.45,1.01.19,1.42.92,1.81.03,1.06.09,2.09-1,2.8-.76.5-.16.74.34.85.46.1.96.23,1.18-.43.18-.54.37-1.08.59-1.61.51-1.26.52-1.26-1.17-1.56.04-.86.35-1.54,1.24-1.84ZM183.31,85.66c.19.02.39.04.58.07,1.62.23,1.9.01,1.4-1.27-.35-.92-.89-1.75-.33-2.77.14-.25.13-.57-.12-.8-.18.19-.46.36-.51.59-.35,1.41-.66,2.83-.98,4.25-1.11-.09-1.72-.71-1.94-1.79-.03-.12-.27-.29-.41-.28-.15,0-.36.16-.43.3-.21.43.46,2.88.81,3.12.3.2.53.02.73-.17.41-.4.8-.82,1.2-1.24ZM173.17,71.91c.64.9.12,1.21-.44,1.46-.53.24-1.1.42-1.63.65-.41.18-.6.53-.44.94.09.23.35.49.58.57,1.54.49,4.38-2.02,3.99-3.58-.15-.61-.64-1.36-1.42-1.25-.64.09-.87.71-.64,1.2ZM187.98,68.58c-.29.05-.77.08-1.23.2-.51.13-.85.48-.76,1.04.07.45.46.6.86.57,1.17-.09,1.81.38,1.91,1.59.03.41.34.72.79.63.63-.13.24-.5.17-.83-.14-.65-.37-1.34-.27-1.96.19-1.17-.41-1.3-1.47-1.25ZM180.04,75.76c0-.08.03-.25,0-.26-1.16-.52-1.86-1.5-2.67-2.42-.36-.4-.99.36-1.3.83-.3.45.05.85.44.82,1.14-.07,1.6,1.02,2.5,1.31.38.12.76.11,1.03-.29ZM186.24,72.97c-.06-.43.08-1.07-.58-1.11-.67-.04-1.09.44-1.11,1.09-.03.71.31,1.62.91,1.64.85.03.77-.92.79-1.62ZM168.3,63.05c.24-.11.49-.31.6-.54.39-.81-.21-1.22-.76-1.6-.21-.15-.52-.2-.78-.21-.07,0-.25.31-.22.45.11.55.25,1.1.45,1.63.1.27.44.39.71.27ZM186.01,64.81c-.1-.41-.41-.62-.78-.68-.43-.07-.72.22-.74.63-.01.4.26.71.69.69.39-.01.68-.26.82-.64ZM177.38,80.51c-.08-.49-.35-.86-.89-.89-.31-.02-.51.26-.45.57.1.5.46.85.95.93.33.05.39-.29.39-.6ZM181.91,65.3c-.03-.37-.21-.61-.54-.54-.41.1-.55.48-.59.86-.03.32.14.59.48.47.35-.13.58-.45.64-.8ZM192.75,65.31c.26-.11.73-.27.58-.49-.18-.27-.66-.36-1.02-.47-.33-.1-.63.03-.49.43.14.39.47.62.93.53ZM180.2,78.42c-.04-.42-.37-.61-.74-.7-.33-.07-.6.13-.5.47.12.38.5.58.89.59.11,0,.23-.23.35-.36ZM173.45,66.35c-.13-.07-.26-.13-.39-.2-.03.07-.09.2-.07.21.12.08.26.14.39.2.02-.07.05-.14.07-.21ZM168.25,64.55c.13.11.25.22.38.33.05-.07.16-.19.15-.2-.12-.13-.25-.24-.38-.36-.05.07-.1.15-.15.22Z"/><path class="cls-1" d="M263.23,139.47c.22-3.4.37-6.81.7-10.2.25-2.64,2.13-4.84,4.27-5.36,2.15-.52,4.87.64,6.38,2.75.74,1.03,1.31,1.89.93,3.47-.46,1.94.22,4.11-.04,6.13-.23,1.78,1.5,3.21.6,4.99-.85,1.67-.31,3.48-.42,5.22-.15,2.34-.05,4.7-.12,7.04-.04,1.24.91,2.25.9,3.33-.01.93-1.17,1.73-1,2.91.06.38-.01.79.04,1.17.46,3.38-1.57,5.22-4.14,6.73-.66.39-1.34.21-2,.07-1.64-.34-3.19-.93-4.6-1.84-.68-.44-1.54-.41-2.15-.74-.46-.25-.16-1.34-.76-1.98-.94-.99-1.6-2.24-2.53-3.23-3.41-3.65-5.84-8.09-9.42-11.59-.68-.66-1.21-1.78-2.36-1.38-1.22.42-1.33,1.65-1.24,2.72.14,1.74.19,3.52.24,5.22.09,3.18.73,6.47-1.26,9.6-1.57,2.47-5.4,3.68-8.48,1.78-.96-.6-1.64-1.62-2.57-2.34-.55-.42-.71-1.35-1.01-2.07-.36-.87.42-1.19.85-1.68.41-.47.64-1.06.45-1.63-.6-1.84-.04-3.62.04-5.44.15-3.02.01-6.07-.19-9.09-.12-1.81.06-3.69-.82-5.43-.36-.71-.37-1.77.05-2.28,1.36-1.64,1.05-3.49.93-5.3-.11-1.71-.09-3.31,1.26-4.61.27-.26.43-.66.56-1.02.83-2.39,1.68-2.72,3.96-1.59.52.26,1.1.44,1.67.55,4.07.81,6.87,3.23,9.24,6.57,2.64,3.72,5.69,7.14,8.51,10.72.57.73,1.3,1.18,2.06,1.6.89.49,1.55.15,1.62-.84.07-.97.01-1.95.01-2.93-.06,0-.12,0-.18,0Z"/><path class="cls-1" d="M197.78,167.36c-3.53-.28-8.32.32-13.11-.18-1.23-.13-1.73-.55-2.35-1.6-1.42-2.44-1.31-4.85-.84-7.47.3-1.68-.1-3.46.55-5.13.1-.25.07-.6,0-.87-.86-3.18-.42-6.41-.37-9.63,0-.29.14-.72,0-.86-1.28-1.24,0-2.48-.02-3.71-.06-2.25.1-4.51,0-6.75-.09-1.83.43-3.47,1.07-5.12.04-.09.05-.19.08-.28.3-1,1.38-1.32,1.91-2.17.62-.99,1.6-.17,2.43-.17,3.03-.01,5.99.66,9.03.66,2.24,0,4.48-.18,6.7-.28,2.15-.09,4.27.23,6.41.11.58-.03,1.18-.01,1.76.1,1.05.2,2.15-1.14,3-.17.66.75,1.11,1.57,2.21,1.66.08,0,.23.11.22.11-.77,1.57.93,3.11-.02,4.76-1.03,1.79-2.31,3.02-4.38,3.57-1.18.32-2.69-.21-3.57,1.4-.39.71-1.64.08-2.42-.33-2-1.04-4.19-.93-6.31-1.01-2.26-.08-3.91,1.6-5.77,2.59-.55.29-.7.93-.29,1.53.67.99,1.44,2.04,2.65,2.18,2.2.25,4.42.83,6.64.32,2.77-.63,5.44.25,8.13.54,1.75.19,3.23,2.95,3.1,4.84-.13,1.97-1.27,3.21-3.55,3.68-1.91.4-3.84.73-5.82.62-2.13-.12-4.24.4-6.39,0-1.1-.2-2.09.42-3.02.98-2.08,1.26-2.18,3.23-.26,4.73.55.43,1.18.88,1.85.81,2.38-.26,4.62.74,6.96.71,1.46-.02,2.9-.04,4.36-.41,2.8-.71,5.25.36,7.25,2.2,2.37,2.17,1.67,5.58-1.2,7.02-1.44.72-2.9,1.05-4.52,1.03-3.62-.06-7.24-.02-12.11-.02Z"/><path class="cls-1" d="M303.9,123.92c2.67-.02,5.66.18,8.56-.73.25-.08.59-.06.82.05,2.32,1.12,4.63.64,7.08.43,2.4-.21,5.1.03,7.27,1.6,2.67,1.92,2.32,5.16-.13,7.23-.84.71-1.92.97-2.95,1.27-1.46.43-3.18-.39-4.46.94-.05.05-.2.04-.28,0-2.51-1.42-5.21,0-7.78-.51-1.71-.35-3.07.44-4.28,1.47-1.49,1.25-1.44,2.87.17,3.9,1.49.96,3.11,1.69,4.99,1.26.85-.19,1.73-.32,2.56-.58.48-.15.94-.32,1.42-.15,2.36.83,4.95.64,7.28,1.62.45.19.87.45,1.28.72,1.59,1.02,2.19,2.62,1.84,4.32-.29,1.42-1.54,2.37-2.94,2.82-.9.29-1.8.63-2.86.36-.82-.21-1.76-.11-2.62.05-1.04.19-2.05.53-3.05.97-.98.44-1.78-.87-2.92-.82-1.92.07-3.69.51-5.24,1.62-.69.49-.88,1.07-.41,2,1.34,2.64,3.22,3.85,6.2,3.55.69-.07,1.33-.06,2.02.02,1.36.14,2.78.36,4.09.09,2.59-.52,5.04-.59,7.39.77.51.29.86.07,1.3-.21.35-.23.96.31.91.44-.73,1.77,1.63,2.87.79,4.89-.76,1.82-1.78,3.09-3.49,3.54-3.02.81-6.1,1.06-9.28.72-3.98-.43-7.99-.32-12.01-.04-2.1.15-4.3-.02-6.36-.47-2.46-.54-3.87-3.16-4.36-5.66-.5-2.59.11-5.14-.28-7.73-.24-1.61.17-3.45.27-5.2.28-4.45-.24-8.89,0-13.33.14-2.63.07-5.26.67-7.86.32-1.39,1.07-2.17,2.35-2.73,2-.88,4.07-.35,6.4-.6Z"/><path class="cls-1" d="M123.98,150.26c0-1.16.16-1.98-.03-2.72-1.16-4.74.63-9.06,2.03-13.36.47-1.46,1.74-2.8,3.05-3.86.3-.25.61-.52.97-.66,1.47-.57.57-3.27,3.06-3.11,1.64.1,2.83-1.62,4.47-2.06,1.59-.43,3.29-.66,4.77-1.21,3.37-1.26,6.62-.19,9.77.28,3.13.46,5.95,2.44,8.46,4.48,1.67,1.36,2.05,3.61,1.25,5.35-.96,2.09-2.38,3.61-4.91,3.46-2.04-.12-4.04-.23-5.74-1.75-1.28-1.14-3.05-1.18-4.72-1.16-3.87.03-7.19,2.35-8.5,5.94-.44,1.19-.84,2.4-1.28,3.59-1.2,3.25.05,5.84,2.29,8.08.39.39.61.66.5,1.2-.27,1.26.49,2.02,1.4,2.67,1.96,1.4,4.02,2.38,6.54,1.67.64-.18,1.36-.05,2.05-.06,1.1-.02,2.1-.27,2.97-1.04.8-.71,1.75-1.24,2.78-1.61,3.77-1.33,7.21,1.18,7.1,5.18-.08,2.75-.21,3.48-1.39,3.95-1.29.52-2.36,1.38-3.61,1.93-1.61.71-3.23,1.37-4.85,2.04-.45.18-.92.33-1.4.41-4.38.78-8.74.55-13-.64-2.17-.61-4.02-1.98-5.79-3.38-.91-.72-1.72-1.59-2.54-2.43-1.35-1.4-2.71-2.77-3.31-4.74-.34-1.1-1.09-2.07-1.58-3.14-.53-1.16-1.83-2.17-.82-3.3Z"/><path class="cls-1" d="M89.66,167.9c-5.49.43-10.03-2.02-14.7-3.99-2.12-.89-2.67-2.77-2.7-4.8-.02-1.43,2.19-3.52,3.96-3.9,1.67-.35,3.3-.22,4.86.58,3.45,1.78,7.13,2.46,10.99,2.35,1.86-.05,3.29-1.14,3.48-2.79.17-1.46-1.46-3.66-3.06-3.73-2.3-.1-4.36-.97-6.54-1.48-3.83-.89-6.56-3.29-9.28-5.82-1.66-1.54-2.47-3.72-4.1-5.32-.65-.64-1.28-1.96-.31-2.93,1.08-1.09-.46-2.69.93-3.67,1.2-.85,1.67-2.08,1.53-3.56-.04-.45.34-.69.75-.75.79-.11,1.64-.22,2.17-.8,2.19-2.4,5.35-3.04,8-4.61.56-.33,1.06-.42,1.65-.19,1.67.65,3.43.7,5.19.85,2.74.25,5.23,1.53,7.9,2.13,1.32.3,2.31,1.42,3.01,2.66,1.73,3.1.28,6.31-3.24,6.82-1.71.25-3.52.42-5.21-.38-.09-.04-.2-.06-.27-.12-1.06-1.04-2.51.47-3.62-.58-.97-.92-2.26-1.09-3.54-1.14-2.1-.08-3.27,1.16-2.96,3.25.13.86.43,1.72.8,2.5.48.98,1.59.51,2.38.83,1.19.49,2.47.63,3.74.71,1.35.08,2.55.05,3.67,1.26.76.82,2.28,1.18,3.49,1.27,2.97.22,4.9,1.75,5.87,4.4.71,1.93,1.71,3.71,2.52,5.58.28.64.65,1.3.27,1.95-1.37,2.34-1.94,5.03-3.72,7.25-2.38,2.97-5.11,4.96-8.89,5.67-1.74.33-3.42.79-5.04.47Z"/><path class="cls-1" d="M362.93,167.97c-3.74.59-7.2-1.13-10.7-2.61-.8-.34-1.53-.83-2.42-1.01-2.68-.54-4.19-3.86-2.45-7.15.32-.6.82-1.18,1.51-1.33,2.56-.57,5.04-1.35,7.62.35,1.94,1.28,4.26,1.95,6.69,1.86.78-.03,1.61-.04,2.33.19,1.43.46,2.43.2,3.19-1.16.85-1.52.93-3.21.09-4.4-.31-.44-.72-.61-1.24-.63-2.38-.1-4.5-1.29-6.85-1.56-1.26-.15-2.42-.72-3.43-1.57-1.03-.87-2.5-.38-3.58-.92-1.13-.57-.77-2.25-1.95-3.09-2.33-1.66-3.39-4.44-5.24-6.55-.33-.38-.43-.95-.22-1.39,1.67-3.4,2.85-7.02,5.61-9.86,2.62-2.7,5.91-3.25,9.31-3.7,1.05-.14,2.16.1,3.08-.68.18-.16.57-.23.8-.15,3.57,1.24,7.42,1.65,10.71,3.78,2.69,1.74,3.49,3.83,2.07,6.67-.47.94-.3,2.09-1.62,2.81-1.82.99-3.54.89-4.91-.13-1.67-1.24-3.5-1.66-5.39-2.08-1.43-.32-2.91-.36-4.31-.85-1.06-.38-1.86-.02-2.44,1.01-.67,1.2-.95,2.2.03,3.49.67.89.84,1.79,2.32,2.1,3.77.79,7.59,1.6,11.1,3.34,3.14,1.55,5.89,3.48,7.1,7.02.31.9.69,1.82,1.48,2.49,1.47,1.24,1.46,1.26.48,3.03-1.37,2.47-2.53,5.02-4.4,7.24-3.45,4.08-7.99,5.19-12.96,5.47-.39.02-.78,0-1.44,0Z"/><path class="cls-1" d="M430.28,144.85c-.03,1.47-.44,2.25-1.76,2.38-1.75.18-3.38,1.04-5.19.81-1.5-.19-2.87.51-4.32.69-.83.1-1.52.19-2.16-.41-.6-.56-1.35-.92-2.14-.79-2.49.39-5.02-.21-7.5.42-1.64.41-3.32.14-4.95-.2-1.07-.22-2.18-.5-3.19-.18-2.48.77-4.86-.03-7.26-.29-1.67-.18-2.04-.78-2.02-2.29.02-1.58.25-1.74,1.78-2.14,4.2-1.11,8.47-.64,12.72-.65,2.04,0,4.09.27,6.11-.41.59-.2,1.34.06,2.02.14,1.94.25,3.83.29,5.8-.03,2.5-.41,5.02.29,7.54.5,1.06.09,2.1.42,3.14.68.95.24,1.59.75,1.38,1.77Z"/><path class="cls-1" d="M28.59,147.49c-.98,0-1.96.04-2.93,0-2.36-.11-3.17-1.11-2.86-3.37.1-.7.46-1.06,1.08-1.18,1.63-.3,3.26-.65,4.91-.81,4.56-.43,9.12.35,13.68,0,2.7-.21,5.39-.06,8.08-.08,3.75-.03,7.53-.41,11.21.75,1.01.32,1.46.72,1.39,1.83-.07,1.02-.06,1.9-1.3,2.28-.96.29-1.95.2-2.87.25-2.41.12-4.6,1.31-7.14.95-2.39-.34-4.88.06-7.3-.38-1.28-.23-2.37.45-3.68.37-4.08-.26-8.18-.33-12.27-.6Z"/><path class="cls-1" d="M41.61,92.13c-.18-.04-.37-.05-.55-.11-.2-.07-.57.12-.57-.22,0-.11.5-.35.69-.29.18.06.24.45.36.69l.07-.07Z"/><path class="cls-1" d="M392.66,11.22c-.2.05-.33.1-.47.1-.18,0-.37-.04-.55-.07.14-.03.27-.08.41-.09.18,0,.37.03.62.05Z"/><path class="cls-1" d="M424.57,141.24c-.25.1-.41.22-.56.21-.25,0-.5-.1-.75-.16.16-.05.33-.13.49-.14.24,0,.49.05.82.08Z"/></svg>