<?xml version="1.0" encoding="UTF-8"?>
<svg data-bbox="0 0 53.597 40" viewBox="0 0 53.597 40" height="40" width="53.597" xmlns="http://www.w3.org/2000/svg" data-type="color">
    <g>
        <path d="M41.983 9.406a11.573 11.573 0 0 0-8.565 3.798A11.597 11.597 0 0 0 13.24 21.02v12.882a5.521 5.521 0 0 1-5.515-5.516v-2.164h3.455v-6.098H7.725V9.406h-6.1v10.718H0v6.098h1.626v2.164A11.627 11.627 0 0 0 13.24 40h6.099V21.02a5.516 5.516 0 1 1 11.03 0V40h6.099V21.02a5.515 5.515 0 1 1 11.03 0V40h6.099V21.02A11.627 11.627 0 0 0 41.983 9.406" fill="#231f20" data-color="1"/>
        <path fill="#d32827" d="M53.597 0v6.098H1.626V0h51.971z" data-color="2"/>
    </g>
</svg>
