<?xml version="1.0" encoding="UTF-8"?>
<svg data-bbox="0 0 367.334 40" viewBox="0 0 367.334 40" height="40" width="367.334" xmlns="http://www.w3.org/2000/svg" data-type="color">
    <g>
        <path d="M41.983 9.406a11.573 11.573 0 0 0-8.565 3.798A11.597 11.597 0 0 0 13.24 21.02v12.882a5.521 5.521 0 0 1-5.515-5.516v-2.164h3.455v-6.098H7.725V9.406h-6.1v10.718H0v6.098h1.626v2.164A11.627 11.627 0 0 0 13.24 40h6.099V21.02a5.516 5.516 0 1 1 11.03 0V40h6.099V21.02a5.515 5.515 0 1 1 11.03 0V40h6.099V21.02A11.627 11.627 0 0 0 41.983 9.406" fill="#231f20" data-color="1"/>
        <path fill="#d32827" d="M53.597 0v6.098H1.626V0h51.971z" data-color="2"/>
        <path d="M74.322 13.912V26.48h-2.245V13.912H68.71V11.8h8.98v2.113z" fill="#231f20" data-color="1"/>
        <path d="M82.795 17.61h6.294V11.8h2.244v14.679H89.09v-6.757h-6.294v6.757H80.55V11.8h2.245z" fill="#231f20" data-color="1"/>
        <path d="M113.563 26.479l3.08-15.78 5.105 11.4 5.15-11.4 2.774 15.78h-2.29l-1.496-8.848-4.269 9.529-4.225-9.551-1.541 8.87z" fill="#231f20" data-color="1"/>
        <path d="M142.26 22.935h-6.272l-1.607 3.544h-2.421l7.306-15.538 6.954 15.538h-2.42zm-.903-2.113l-2.179-4.973-2.266 4.973z" fill="#231f20" data-color="1"/>
        <path d="M155.289 15.057a2.274 2.274 0 0 0-2.245-1.453 1.82 1.82 0 0 0-2.07 1.76c0 .44.154 1.21 1.586 1.784l1.473.594c2.708 1.1 3.456 2.64 3.456 4.313a4.524 4.524 0 0 1-4.732 4.71 4.298 4.298 0 0 1-3.455-1.474 4.755 4.755 0 0 1-1.233-2.862l2.224-.484a3.167 3.167 0 0 0 .616 1.871 2.317 2.317 0 0 0 1.914.88 2.359 2.359 0 0 0 2.421-2.465c0-1.497-1.145-2.113-2.113-2.509l-1.408-.594c-1.211-.506-2.993-1.519-2.993-3.72a3.963 3.963 0 0 1 4.292-3.873 4.328 4.328 0 0 1 2.948.99A5.003 5.003 0 0 1 157.093 14z" fill="#231f20" data-color="1"/>
        <path d="M166.755 26.479l3.08-15.78 5.107 11.4 5.149-11.4 2.773 15.78h-2.288l-1.498-8.848-4.269 9.529-4.225-9.551-1.54 8.87z" fill="#231f20" data-color="1"/>
        <path d="M194.925 13.912h-5.854v3.72h5.679v2.112h-5.679v4.622h5.855v2.113h-8.1V11.8h8.1z" fill="#231f20" data-color="1"/>
        <path d="M201.77 20.14l-4.82-8.34h2.552l3.39 5.876 3.388-5.876h2.554l-4.82 8.34v6.34h-2.244z" fill="#231f20" data-color="1"/>
        <path d="M219.574 13.912h-5.855v3.72h5.68v2.112h-5.68v4.622h5.855v2.113h-8.099V11.8h8.1z" fill="#231f20" data-color="1"/>
        <path d="M225.979 11.8a6.566 6.566 0 0 1 3.871.858 4.094 4.094 0 0 1 1.74 3.455 4.028 4.028 0 0 1-3.257 4.094l4.577 6.272h-2.707L226 20.47h-.397v6.009h-2.244V11.8zm-.376 6.734h.705c.617 0 3.126-.066 3.126-2.398 0-2.07-1.96-2.267-3.06-2.267h-.77z" fill="#231f20" data-color="1"/>
        <path d="M244.686 9.973h2.111V31.98h-2.111z" fill="#d32827" data-color="2"/>
        <path d="M261.081 19.502v6.977h-.97V11.8h2.841c2.398 0 4.29 1.32 4.29 3.83 0 2.442-1.738 3.873-4.268 3.873zm0-.88h1.936a2.9 2.9 0 0 0 3.214-2.97c0-1.827-1.233-2.972-3.368-2.972h-1.782z" fill="#231f20" data-color="1"/>
        <path d="M285.244 19.172a7.614 7.614 0 1 1-7.613-7.57 7.492 7.492 0 0 1 7.613 7.57zm-1.011 0a6.603 6.603 0 1 0-13.206 0 6.603 6.603 0 1 0 13.206 0z" fill="#231f20" data-color="1"/>
        <path d="M295.457 26.479l-4.755-6.933h-.438v6.933h-.97V11.8h2.114a5.137 5.137 0 0 1 3.103.748 3.655 3.655 0 0 1 1.517 3.147 3.528 3.528 0 0 1-2.463 3.566 5.635 5.635 0 0 1-1.806.286l4.798 6.932zm-5.193-7.813h1.408c2.09 0 3.344-1.1 3.344-2.993a2.734 2.734 0 0 0-1.297-2.553 5.236 5.236 0 0 0-2.246-.44h-1.21z" fill="#231f20" data-color="1"/>
        <path d="M303.578 12.68v13.799h-.968V12.68h-3.809v-.88h8.583v.88z" fill="#231f20" data-color="1"/>
        <path d="M316.495 12.68h-4.972v5.326h4.842v.88h-4.842v7.593h-.97V11.8h5.942z" fill="#231f20" data-color="1"/>
        <path d="M334.807 19.172a7.615 7.615 0 1 1-7.615-7.57 7.494 7.494 0 0 1 7.615 7.57zm-1.014 0a6.602 6.602 0 1 0-13.203 0 6.602 6.602 0 1 0 13.203 0z" fill="#231f20" data-color="1"/>
        <path d="M339.824 11.8v13.799h4.093v.88h-5.06V11.8z" fill="#231f20" data-color="1"/>
        <path d="M348.056 11.8v14.679h-.97V11.8z" fill="#231f20" data-color="1"/>
        <path d="M367.334 19.172a7.614 7.614 0 1 1-7.613-7.57 7.492 7.492 0 0 1 7.613 7.57zm-1.012 0a6.603 6.603 0 1 0-13.205 0 6.603 6.603 0 1 0 13.205 0z" fill="#231f20" data-color="1"/>
        <path d="M102.668 11.536a7.447 7.447 0 0 0-7.637 7.614 7.637 7.637 0 0 0 15.274 0 7.446 7.446 0 0 0-7.637-7.614z" fill="#d32827" data-color="2"/>
    </g>
</svg>
