<?xml version="1.0" encoding="UTF-8"?><svg id="Layer_1" xmlns="http://www.w3.org/2000/svg" viewBox="0 0 686.95 512.82"><defs><clipPath id="myClipPath">
      <path d="M676.79,472.45c-1.33,14.04-12.48,25.18-26.61,26.46-94.65,8.58-198.07,13.96-309.11,13.91-109.73-.05-211.99-5.4-305.69-13.88-14.27-1.29-25.49-12.64-26.65-26.83C3.07,402.61-.28,327.42.02,247.22.29,174.44,3.55,105.87,8.74,42.02c1.15-14.1,12.22-25.41,26.39-26.82C130.52,5.75,235.8-.25,349.54,0c108.51.24,209.21,6.13,300.87,15.22,14.03,1.39,25.04,12.5,26.36,26.44,5.91,62.47,9.74,130.29,10.14,202.82.46,82.15-3.55,158.45-10.12,227.96Z"/>
    </clipPath></defs></svg>